<svg xmlns="http://www.w3.org/2000/svg" xmlns:xlink="http://www.w3.org/1999/xlink" xml:space="preserve" width="7900.000021457672" height="8639.000003576279" version="1.1" style="shape-rendering: geometricprecision; text-rendering: geometricprecision; fill-rule: evenodd; clip-rule: evenodd;"><rect id="backgroundrect" width="100%" height="100%" x="0" y="0" fill="none" stroke="none" class="" style=""/>
 <defs>
  <style type="text/css">
   <![CDATA[
    .fil2 {fill:#6666FF}
    .fil1 {fill:#6699FF}
    .fil0 {fill:#999999}
   ]]>
  </style>
 </defs>
 
<g class="currentLayer" style=""><title>Layer 1</title><g id="Camada_x0020_1" class="" transform="rotate(-1.2889069318771362 3904.5622558593263,4287.340332031241) ">
  <metadata id="CorelCorpID_0Corel-Layer" transform="translate(0,-139.99998474121094) translate(-3599.999755859375,-4639.99951171875) "/>
  <g id="_1222489287296">
   <path class="fil0" d="M3060.960244140625,2592.460503540039 l1168.6,-576.91 c1375.87,-653.65 937.68,-703.01 2339.26,322.4 c1379.98,1060.11 1170.31,635.38 1172.75,2375.54 c0.4400000000000001,1532.4 150.55,1407.96 -744.33,1847.51 c-119.96,58.92 -259.81,125.46 -422.19,205.62 l-1168.6,576.91 c196.19,-3568.07 627,-2721.89 -2345.49,-4751.07 z" id="svg_1"/>
   <path class="fil1" d="M5298.470244140624,1433.620503540039 l-1078.01,-732.36 c-1272.74,-836.91 -831.93,-825.44 -2361.38,-2.83 c-1512.83,859.95 -1246.65,468.15 -1488.73,2191.38 c-211.48,1517.74 -343.03,1373.82 482.79,1932.42 c110.7,74.88 240.05,160.04 389.85,261.81 l1078.01,732.35 c297.08,-3561.09 -246.16,-2782.3 2977.47,-4382.77 z" id="svg_2"/>
   <path class="fil2" d="M5502.490244140625,4864.240503540039 l-94.78,1299.8 c-133.65,1517.37 130.94,1164.61 -1463.28,1853.34 c-1613.19,652.54 -1140.78,686.99 -2642.23,-192.67 c-1321.33,-776.11 -1290.12,-583.64 -1215.61,-1577.85 c9.99,-133.27 23.49,-287.55 36.66,-468.17 l94.78,-1299.79 c2976.67,1977.12 2028.88,1919.76 5284.46,385.34 z" id="svg_3"/>
  </g>
 </g></g></svg>